<svg width="53" height="53" viewBox="0 0 53 53" fill="none" xmlns="http://www.w3.org/2000/svg">
<path d="M17.1145 5.52084C17.1145 5.08158 16.94 4.66031 16.6294 4.3497C16.3188 4.03909 15.8975 3.86459 15.4583 3.86459C15.019 3.86459 14.5977 4.03909 14.2871 4.3497C13.9765 4.66031 13.802 5.08158 13.802 5.52084V9.01001C10.622 9.26397 8.53736 9.88672 7.00477 11.4215C5.46998 12.9541 4.84723 15.041 4.59106 18.2188H48.4088C48.1526 15.0388 47.5299 12.9541 45.9951 11.4215C44.4625 9.88672 42.3756 9.26397 39.1979 9.0078V5.52084C39.1979 5.08158 39.0234 4.66031 38.7128 4.3497C38.4021 4.03909 37.9809 3.86459 37.5416 3.86459C37.1023 3.86459 36.6811 4.03909 36.3705 4.3497C36.0599 4.66031 35.8854 5.08158 35.8854 5.52084V8.86205C34.4168 8.83334 32.7694 8.83334 30.9166 8.83334H22.0833C20.2305 8.83334 18.5831 8.83334 17.1145 8.86205V5.52084Z" fill="url(#paint0_linear_279_1279)"/>
<path fill-rule="evenodd" clip-rule="evenodd" d="M4.41663 26.5C4.41663 24.6472 4.41663 22.9998 4.44533 21.5312H48.5546C48.5833 22.9998 48.5833 24.6472 48.5833 26.5V30.9167C48.5833 39.2443 48.5833 43.4092 45.9951 45.9952C43.407 48.5811 39.2443 48.5833 30.9166 48.5833H22.0833C13.7557 48.5833 9.59075 48.5833 7.00479 45.9952C4.41883 43.407 4.41663 39.2443 4.41663 30.9167V26.5ZM37.5416 30.9167C38.1273 30.9167 38.689 30.684 39.1032 30.2699C39.5173 29.8557 39.75 29.294 39.75 28.7083C39.75 28.1226 39.5173 27.5609 39.1032 27.1468C38.689 26.7327 38.1273 26.5 37.5416 26.5C36.9559 26.5 36.3942 26.7327 35.9801 27.1468C35.566 27.5609 35.3333 28.1226 35.3333 28.7083C35.3333 29.294 35.566 29.8557 35.9801 30.2699C36.3942 30.684 36.9559 30.9167 37.5416 30.9167ZM37.5416 39.75C38.1273 39.75 38.689 39.5173 39.1032 39.1032C39.5173 38.6891 39.75 38.1274 39.75 37.5417C39.75 36.956 39.5173 36.3943 39.1032 35.9801C38.689 35.566 38.1273 35.3333 37.5416 35.3333C36.9559 35.3333 36.3942 35.566 35.9801 35.9801C35.566 36.3943 35.3333 36.956 35.3333 37.5417C35.3333 38.1274 35.566 38.6891 35.9801 39.1032C36.3942 39.5173 36.9559 39.75 37.5416 39.75ZM28.7083 28.7083C28.7083 29.294 28.4756 29.8557 28.0615 30.2699C27.6473 30.684 27.0856 30.9167 26.5 30.9167C25.9143 30.9167 25.3526 30.684 24.9384 30.2699C24.5243 29.8557 24.2916 29.294 24.2916 28.7083C24.2916 28.1226 24.5243 27.5609 24.9384 27.1468C25.3526 26.7327 25.9143 26.5 26.5 26.5C27.0856 26.5 27.6473 26.7327 28.0615 27.1468C28.4756 27.5609 28.7083 28.1226 28.7083 28.7083ZM28.7083 37.5417C28.7083 38.1274 28.4756 38.6891 28.0615 39.1032C27.6473 39.5173 27.0856 39.75 26.5 39.75C25.9143 39.75 25.3526 39.5173 24.9384 39.1032C24.5243 38.6891 24.2916 38.1274 24.2916 37.5417C24.2916 36.956 24.5243 36.3943 24.9384 35.9801C25.3526 35.566 25.9143 35.3333 26.5 35.3333C27.0856 35.3333 27.6473 35.566 28.0615 35.9801C28.4756 36.3943 28.7083 36.956 28.7083 37.5417ZM15.4583 30.9167C16.044 30.9167 16.6057 30.684 17.0198 30.2699C17.434 29.8557 17.6666 29.294 17.6666 28.7083C17.6666 28.1226 17.434 27.5609 17.0198 27.1468C16.6057 26.7327 16.044 26.5 15.4583 26.5C14.8726 26.5 14.3109 26.7327 13.8968 27.1468C13.4826 27.5609 13.25 28.1226 13.25 28.7083C13.25 29.294 13.4826 29.8557 13.8968 30.2699C14.3109 30.684 14.8726 30.9167 15.4583 30.9167ZM15.4583 39.75C16.044 39.75 16.6057 39.5173 17.0198 39.1032C17.434 38.6891 17.6666 38.1274 17.6666 37.5417C17.6666 36.956 17.434 36.3943 17.0198 35.9801C16.6057 35.566 16.044 35.3333 15.4583 35.3333C14.8726 35.3333 14.3109 35.566 13.8968 35.9801C13.4826 36.3943 13.25 36.956 13.25 37.5417C13.25 38.1274 13.4826 38.6891 13.8968 39.1032C14.3109 39.5173 14.8726 39.75 15.4583 39.75Z" fill="url(#paint1_linear_279_1279)"/>
<defs>
<linearGradient id="paint0_linear_279_1279" x1="26.4999" y1="2.15645" x2="30.9229" y2="27.3836" gradientUnits="userSpaceOnUse">
<stop stop-color="#977BFC"/>
<stop offset="1" stop-color="#4A20FF"/>
</linearGradient>
<linearGradient id="paint1_linear_279_1279" x1="26.5" y1="18.3121" x2="41.0055" y2="62.5619" gradientUnits="userSpaceOnUse">
<stop stop-color="#977BFC"/>
<stop offset="1" stop-color="#4A20FF"/>
</linearGradient>
</defs>
</svg>
