<svg width="46" height="36" viewBox="0 0 46 36" fill="none" xmlns="http://www.w3.org/2000/svg">
<path d="M43.25 15.7503H34.385C34.2282 15.7295 34.0693 15.7295 33.9125 15.7503H33.53C33.411 15.815 33.298 15.8903 33.1925 15.9753C33.0681 16.0592 32.9479 16.1493 32.8325 16.2453C32.7574 16.3373 32.6897 16.4351 32.63 16.5378C32.5267 16.6794 32.4363 16.83 32.36 16.9878L28.76 26.9103L19.3775 1.48529C19.2198 1.05092 18.9323 0.675632 18.5539 0.410418C18.1755 0.145204 17.7246 0.00292969 17.2625 0.00292969C16.8004 0.00292969 16.3495 0.145204 15.9711 0.410418C15.5927 0.675632 15.3052 1.05092 15.1475 1.48529L9.95 15.7503H2.75C2.15326 15.7503 1.58097 15.9873 1.15901 16.4093C0.737053 16.8313 0.5 17.4035 0.5 18.0003C0.5 18.597 0.737053 19.1693 1.15901 19.5913C1.58097 20.0132 2.15326 20.2503 2.75 20.2503H12.425C12.5518 20.1868 12.6724 20.1115 12.785 20.0253C12.9094 19.9413 13.0296 19.8512 13.145 19.7553L13.3475 19.4628C13.4547 19.3238 13.5454 19.1728 13.6175 19.0128L17.2625 8.82029L26.6225 34.5153C26.7797 34.9501 27.0671 35.326 27.4455 35.5917C27.824 35.8574 28.2751 36.0001 28.7375 36.0003C29.1999 36.0001 29.651 35.8574 30.0295 35.5917C30.4079 35.326 30.6953 34.9501 30.8525 34.5153L36.0275 20.2503H43.25C43.8467 20.2503 44.419 20.0132 44.841 19.5913C45.2629 19.1693 45.5 18.597 45.5 18.0003C45.5 17.4035 45.2629 16.8313 44.841 16.4093C44.419 15.9873 43.8467 15.7503 43.25 15.7503Z" fill="url(#paint0_linear_112_2238)"/>
<defs>
<linearGradient id="paint0_linear_112_2238" x1="23" y1="-4.28076" x2="46.5935" y2="50.8276" gradientUnits="userSpaceOnUse">
<stop stop-color="#977BFC"/>
<stop offset="1" stop-color="#4A20FF"/>
</linearGradient>
</defs>
</svg>
