<svg width="59" height="56" viewBox="0 0 59 56" fill="none" xmlns="http://www.w3.org/2000/svg">
<path d="M4.27508 4.13055C4.65836 4.03476 5.05684 4.0151 5.44775 4.07271C5.83867 4.13032 6.21436 4.26406 6.55338 4.46631C6.8924 4.66855 7.1881 4.93533 7.42361 5.25141C7.65911 5.5675 7.8298 5.92669 7.92594 6.30849L11.7934 21.7299C11.8634 22.032 11.9931 22.3172 12.1749 22.5688C12.3567 22.8204 12.5871 23.0334 12.8525 23.1954C13.1179 23.3573 13.413 23.465 13.7207 23.5121C14.0283 23.5592 14.3423 23.5447 14.6443 23.4696C14.9462 23.3945 15.2301 23.2601 15.4794 23.0745C15.7287 22.8889 15.9383 22.6556 16.0961 22.3884C16.2539 22.1211 16.3566 21.8252 16.3983 21.518C16.44 21.2108 16.4198 20.8983 16.339 20.599L12.1184 3.7669C12.016 3.38295 11.9912 2.98255 12.0455 2.58898C12.0998 2.19541 12.2322 1.81652 12.4348 1.47434C12.6375 1.13217 12.9064 0.833539 13.2259 0.595816C13.5455 0.358093 13.9093 0.186021 14.2962 0.0896056C14.6831 -0.00680953 15.0854 -0.0256442 15.4797 0.0341974C15.874 0.094039 16.2524 0.231363 16.5929 0.438183C16.9334 0.645003 17.2293 0.917193 17.4632 1.23893C17.6972 1.56066 17.8646 1.92551 17.9558 2.31227L22.4973 20.4271C22.6468 21.0291 23.0302 21.5473 23.5633 21.8677C24.0964 22.1881 24.7354 22.2844 25.3397 22.1355C25.9441 21.9866 26.4643 21.6046 26.786 21.0737C27.1076 20.5427 27.2043 19.9062 27.0548 19.3042L24.1743 7.6752C23.9806 6.90362 24.1026 6.08701 24.5134 5.40502C24.9242 4.72304 25.5902 4.23153 26.3648 4.03864C27.1394 3.84574 27.9592 3.96726 28.6439 4.37645C29.3286 4.78564 29.822 5.44899 30.0157 6.22057L33.2051 19.1004C33.2836 19.4006 33.4207 19.6824 33.6086 19.9298C33.7964 20.1772 34.0314 20.3853 34.3 20.5423C34.5686 20.6993 34.8656 20.802 35.1741 20.8446C35.4825 20.8873 35.7964 20.869 36.0977 20.7908C36.3991 20.7126 36.6821 20.576 36.9304 20.3889C37.1788 20.2018 37.3878 19.9678 37.5453 19.7002C37.7029 19.4327 37.8061 19.1368 37.8489 18.8296C37.8917 18.5223 37.8733 18.2097 37.7948 17.9095L36.0977 11.7314C35.8982 10.9614 36.014 10.144 36.4195 9.45898C36.8251 8.774 37.4872 8.27754 38.2602 8.07881C39.0332 7.88009 39.8538 7.99538 40.5415 8.39933C41.2292 8.80327 41.7276 9.46278 41.9271 10.2328L44.92 21.2384L44.928 21.2663C44.9708 21.3782 45.0056 21.4928 45.0323 21.61C45.6141 24.4233 46.0554 27.3446 46.1276 29.9621C46.26 34.8495 45.5017 41.1875 44.8839 45.4314C44.6064 47.2668 43.8067 48.9846 42.5795 50.3812C41.3523 51.7779 39.7489 52.7949 37.9593 53.312L30.802 55.422C25.0649 57.1124 19.043 54.9584 15.1474 50.7424C11.7774 47.0859 7.38432 43.0297 3.14772 41.0276C1.83738 40.4223 0.811507 39.3375 0.283199 37.9985C-0.0159257 37.2439 -0.0798413 36.4171 0.0997874 35.6259C0.279416 34.8346 0.694252 34.1156 1.29019 33.5627C2.58981 32.3082 4.21803 31.444 5.98817 31.069C6.59799 30.9465 7.23321 30.8905 7.89384 30.9012L2.08857 7.76311C1.9924 7.38133 1.97266 6.98441 2.0305 6.59503C2.08833 6.20565 2.22261 5.83142 2.42564 5.49373C2.62868 5.15604 2.89651 4.8615 3.21384 4.62692C3.53117 4.39233 3.89178 4.22631 4.27508 4.13055ZM49.8587 0.0624045C50.1197 0.0251539 50.3854 0.03951 50.6408 0.104652C50.8962 0.169794 51.1362 0.284444 51.3471 0.442045C54.5513 3.048 56.9035 6.54552 58.104 10.4885C59.3044 14.4316 59.2985 18.6414 58.0872 22.5811C57.9715 23.0002 57.719 23.3691 57.3696 23.6296C57.0202 23.89 56.5938 24.0273 56.1574 24.0197L55.5958 23.9398C55.085 23.7914 54.6544 23.447 54.3986 22.9824C54.1428 22.5177 54.0827 21.9709 54.2317 21.4621C55.2152 18.3025 55.2371 14.9235 54.2946 11.7514C53.3521 8.57939 51.4875 5.75651 48.9359 3.63902C48.6185 3.40173 48.3788 3.07596 48.2472 2.70293C48.1157 2.3299 48.0982 1.92639 48.197 1.54346C48.2958 1.16054 48.5064 0.815416 48.8022 0.551773C49.098 0.288131 49.4657 0.117823 49.8587 0.0624045ZM47.291 6.39641C47.0787 6.24411 46.8379 6.13559 46.5828 6.0772C46.3277 6.01882 46.0635 6.01176 45.8057 6.05642C45.5479 6.10109 45.3016 6.19659 45.0813 6.33731C44.861 6.47804 44.6711 6.66117 44.5228 6.87595C44.3658 7.08265 44.2516 7.31833 44.1868 7.56932C44.122 7.82032 44.1078 8.08164 44.1451 8.33813C44.1824 8.59462 44.2705 8.84118 44.4042 9.06352C44.5379 9.28585 44.7146 9.47954 44.924 9.63334C46.0901 10.6426 46.9918 11.9196 47.551 13.354C48.1102 14.7884 48.3102 16.3369 48.1336 17.8655C48.1116 18.1281 48.142 18.3924 48.223 18.6432C48.3041 18.894 48.4341 19.1264 48.6056 19.327C48.7771 19.5275 48.9868 19.6923 49.2225 19.8119C49.4582 19.9314 49.7153 20.0033 49.979 20.0235C50.4844 20.0251 50.9717 19.8367 51.3436 19.4959C51.7155 19.1551 51.9446 18.687 51.985 18.1852C52.2347 15.9874 51.937 13.7621 51.1184 11.706C50.2997 9.64992 48.9852 7.82634 47.291 6.39641Z" fill="url(#paint0_linear_111_3689)"/>
<defs>
<linearGradient id="paint0_linear_111_3689" x1="14.0302" y1="7.448" x2="41.8938" y2="54.3236" gradientUnits="userSpaceOnUse">
<stop offset="0.125" stop-color="#13093C"/>
<stop offset="1" stop-color="#5932EA"/>
</linearGradient>
</defs>
</svg>
