<svg width="49" height="51" viewBox="0 0 49 51" fill="none" xmlns="http://www.w3.org/2000/svg">
<path fill-rule="evenodd" clip-rule="evenodd" d="M24.3977 0.679688C18.0986 0.679688 12.3601 2.76033 8.96439 4.46026C8.65759 4.61366 8.37125 4.76334 8.10536 4.9093C7.57823 5.19657 7.12919 5.46432 6.77219 5.7L10.635 11.3869L12.4535 12.1107C19.56 15.696 29.0903 15.696 36.1982 12.1107L38.2621 11.0397L41.9144 5.7C41.157 5.20788 40.3704 4.76221 39.559 4.36543C36.1801 2.68363 30.5782 0.679688 24.3991 0.679688M15.4155 7.11684C14.0479 6.85948 12.697 6.52047 11.37 6.10162C14.5509 4.68896 19.2909 3.18984 24.3991 3.18984C27.937 3.18984 31.2825 3.90942 34.0492 4.82145C30.8069 5.27746 27.3471 6.05142 24.0504 7.00389C21.4566 7.75415 18.4249 7.67326 15.4155 7.11684ZM37.6722 14.1788L37.3292 14.3517C29.5114 18.2954 19.1417 18.2954 11.3239 14.3517L10.999 14.1871C-0.747124 27.074 -9.71396 50.8786 24.3977 50.8786C58.5093 50.8786 49.3249 26.6319 37.6722 14.1788ZM22.9487 25.7813C22.209 25.7813 21.4996 26.0751 20.9766 26.5982C20.4535 27.1212 20.1597 27.8306 20.1597 28.5703C20.1597 29.31 20.4535 30.0194 20.9766 30.5425C21.4996 31.0655 22.209 31.3594 22.9487 31.3594V25.7813ZM25.7378 22.9922V21.5977H22.9487V22.9922C21.4693 22.9922 20.0505 23.5799 19.0044 24.626C17.9583 25.6721 17.3706 27.0909 17.3706 28.5703C17.3706 30.0497 17.9583 31.4685 19.0044 32.5146C20.0505 33.5607 21.4693 34.1484 22.9487 34.1484V39.7266C21.7355 39.7266 20.7022 38.9526 20.3173 37.8677C20.2602 37.6902 20.168 37.5259 20.0464 37.3846C19.9247 37.2433 19.7759 37.1279 19.6088 37.0451C19.4417 36.9624 19.2597 36.9139 19.0736 36.9027C18.8875 36.8915 18.701 36.9177 18.5252 36.9799C18.3494 37.042 18.1878 37.1387 18.05 37.2644C17.9123 37.39 17.8011 37.542 17.7231 37.7114C17.6451 37.8807 17.6018 38.064 17.5959 38.2504C17.59 38.4368 17.6215 38.6224 17.6886 38.7964C18.0731 39.8842 18.7854 40.8261 19.7275 41.4921C20.6696 42.1582 21.795 42.5158 22.9487 42.5156V43.9102H25.7378V42.5156C27.2172 42.5156 28.636 41.9279 29.6821 40.8818C30.7282 39.8357 31.3159 38.4169 31.3159 36.9375C31.3159 35.4581 30.7282 34.0393 29.6821 32.9932C28.636 31.9471 27.2172 31.3594 25.7378 31.3594V25.7813C26.9511 25.7813 27.9844 26.5552 28.3693 27.6402C28.4264 27.8177 28.5185 27.9819 28.6402 28.1232C28.7619 28.2645 28.9107 28.3799 29.0778 28.4627C29.2449 28.5455 29.4268 28.5939 29.613 28.6051C29.7991 28.6163 29.9856 28.5901 30.1614 28.528C30.3372 28.4658 30.4988 28.3691 30.6365 28.2435C30.7743 28.1178 30.8855 27.9658 30.9635 27.7964C31.0415 27.6271 31.0847 27.4438 31.0906 27.2574C31.0966 27.071 31.0651 26.8854 30.998 26.7114C30.6135 25.6236 29.9011 24.6818 28.9591 24.0157C28.017 23.3496 26.8916 22.992 25.7378 22.9922ZM25.7378 34.1484V39.7266C26.4775 39.7266 27.1869 39.4327 27.71 38.9097C28.233 38.3866 28.5269 37.6772 28.5269 36.9375C28.5269 36.1978 28.233 35.4884 27.71 34.9653C27.1869 34.4423 26.4775 34.1484 25.7378 34.1484Z" fill="url(#paint0_linear_112_2228)"/>
<defs>
<linearGradient id="paint0_linear_112_2228" x1="24.3461" y1="-5.29399" x2="63.1996" y2="63.79" gradientUnits="userSpaceOnUse">
<stop stop-color="#977BFC"/>
<stop offset="1" stop-color="#4A20FF"/>
</linearGradient>
</defs>
</svg>
