<svg width="54" height="54" viewBox="0 0 54 54" fill="none" xmlns="http://www.w3.org/2000/svg">
<path d="M47.25 24.75H38.385C38.2282 24.7292 38.0693 24.7292 37.9125 24.75H37.53C37.411 24.8147 37.298 24.89 37.1925 24.975C37.0681 25.0589 36.9479 25.149 36.8325 25.245C36.7574 25.337 36.6897 25.4348 36.63 25.5375C36.5267 25.6791 36.4363 25.8297 36.36 25.9875L32.76 35.91L23.3775 10.485C23.2198 10.0506 22.9323 9.67533 22.5539 9.41011C22.1755 9.1449 21.7246 9.00262 21.2625 9.00262C20.8004 9.00262 20.3495 9.1449 19.9711 9.41011C19.5927 9.67533 19.3052 10.0506 19.1475 10.485L13.95 24.75H6.75C6.15326 24.75 5.58097 24.987 5.15901 25.409C4.73705 25.8309 4.5 26.4032 4.5 27C4.5 27.5967 4.73705 28.169 5.15901 28.591C5.58097 29.0129 6.15326 29.25 6.75 29.25H16.425C16.5518 29.1865 16.6724 29.1112 16.785 29.025C16.9094 28.941 17.0296 28.8509 17.145 28.755L17.3475 28.4625C17.4547 28.3235 17.5454 28.1725 17.6175 28.0125L21.2625 17.82L30.6225 43.515C30.7797 43.9498 31.0671 44.3257 31.4455 44.5914C31.824 44.8571 32.2751 44.9998 32.7375 45C33.1999 44.9998 33.651 44.8571 34.0295 44.5914C34.4079 44.3257 34.6953 43.9498 34.8525 43.515L40.0275 29.25H47.25C47.8467 29.25 48.419 29.0129 48.841 28.591C49.2629 28.169 49.5 27.5967 49.5 27C49.5 26.4032 49.2629 25.8309 48.841 25.409C48.419 24.987 47.8467 24.75 47.25 24.75Z" fill="url(#paint0_linear_110_2696)"/>
<defs>
<linearGradient id="paint0_linear_110_2696" x1="27" y1="4.71894" x2="50.5935" y2="59.8272" gradientUnits="userSpaceOnUse">
<stop stop-color="#977BFC"/>
<stop offset="1" stop-color="#4A20FF"/>
</linearGradient>
</defs>
</svg>
