<svg width="47" height="62" viewBox="0 0 47 62" fill="none" xmlns="http://www.w3.org/2000/svg">
<path d="M39.2719 31.9922C41.0894 31.9922 42.8326 32.7579 44.1178 34.1208C45.403 35.4837 46.125 37.3322 46.125 39.2597V41.6822C46.125 51.2317 37.6271 61.0622 23.2812 61.0622C8.93537 61.0622 0.4375 51.2317 0.4375 41.6822V39.2597C0.4375 37.3322 1.15952 35.4837 2.44473 34.1208C3.72994 32.7579 5.47306 31.9922 7.29062 31.9922H39.2719Z" fill="url(#paint0_linear_112_2422)"/>
<path d="M39.2719 31.9922C41.0894 31.9922 42.8326 32.7579 44.1178 34.1208C45.403 35.4837 46.125 37.3322 46.125 39.2597V41.6822C46.125 51.2317 37.6271 61.0622 23.2812 61.0622C8.93537 61.0622 0.4375 51.2317 0.4375 41.6822V39.2597C0.4375 37.3322 1.15952 35.4837 2.44473 34.1208C3.72994 32.7579 5.47306 31.9922 7.29062 31.9922H39.2719Z" fill="url(#paint1_linear_112_2422)"/>
<path d="M23.2809 0.5C26.6131 0.5 29.8088 1.90375 32.165 4.40244C34.5212 6.90112 35.8449 10.2901 35.8449 13.8237C35.8449 17.3574 34.5212 20.7464 32.165 23.2451C29.8088 25.7438 26.6131 27.1475 23.2809 27.1475C19.9487 27.1475 16.7529 25.7438 14.3967 23.2451C12.0405 20.7464 10.7168 17.3574 10.7168 13.8237C10.7168 10.2901 12.0405 6.90112 14.3967 4.40244C16.7529 1.90375 19.9487 0.5 23.2809 0.5Z" fill="url(#paint2_linear_112_2422)"/>
<defs>
<linearGradient id="paint0_linear_112_2422" x1="11.302" y1="35.8585" x2="22.6262" y2="64.2773" gradientUnits="userSpaceOnUse">
<stop offset="0.125" stop-color="#13093C"/>
<stop offset="1" stop-color="#5932EA"/>
</linearGradient>
<linearGradient id="paint1_linear_112_2422" x1="23.2812" y1="28.5329" x2="39.3506" y2="75.7211" gradientUnits="userSpaceOnUse">
<stop stop-color="#977BFC"/>
<stop offset="1" stop-color="#4A20FF"/>
</linearGradient>
<linearGradient id="paint2_linear_112_2422" x1="16.6927" y1="4.04169" x2="30.6061" y2="24.9926" gradientUnits="userSpaceOnUse">
<stop offset="0.125" stop-color="#081E4A"/>
<stop offset="1" stop-color="#5932EA"/>
</linearGradient>
</defs>
</svg>
