<svg width="219" height="45" viewBox="0 0 219 45" fill="none" xmlns="http://www.w3.org/2000/svg">
<path d="M0.072 0.199997H17.096C19.784 1.096 22.0667 2.76 23.944 5.192C25.864 7.58133 26.824 10.5253 26.824 14.024C26.824 19.7413 24.5627 23.944 20.04 26.632L26.504 45H17.544L12.104 28.68H8.712V45H0.072V0.199997ZM8.712 7.88V21.512H14.216C14.9413 21.3413 15.7307 20.616 16.584 19.336C17.48 18.0133 17.928 16.4773 17.928 14.728C17.928 12.9787 17.544 11.4427 16.776 10.12C16.0507 8.79733 15.3253 8.05066 14.6 7.88H8.712ZM31.447 45V0.199997H54.423V7.88H40.215V18.568H52.887V25.992H40.215V37.576H54.679V45H31.447ZM79.6025 45L67.6345 20.232L67.3145 20.36L67.6985 27.912V45H59.6345V0.199997H66.0985L77.8745 25.928L78.1945 25.8L77.4905 17.928V0.199997H85.5545V45H79.6025ZM98.929 7.88H89.265V0.199997H117.297V7.88H107.633V45H98.929V7.88ZM121.01 45V0.199997H129.778V45H121.01ZM155.915 45L143.947 20.232L143.627 20.36L144.011 27.912V45H135.947V0.199997H142.411L154.187 25.928L154.507 25.8L153.803 17.928V0.199997H161.867V45H155.915ZM168.01 45V0.199997H190.986V7.88H176.778V18.568H189.45V25.992H176.778V37.576H191.242V45H168.01ZM196.197 45V0.199997H204.965V37.576H218.277V45H196.197Z" fill="#E8E8E8"/>
</svg>
